<svg xmlns="http://www.w3.org/2000/svg" width="100%" height="170" viewBox="0 0 1200 170" preserveAspectRatio="xMidYMid slice">
<defs>
<linearGradient id="fade" x1="0" y1="0" x2="0" y2="1">
<stop offset="0" stop-color="#000" stop-opacity="0.55"/>
<stop offset="0.25" stop-color="#000" stop-opacity="0"/>
<stop offset="0.85" stop-color="#000" stop-opacity="0"/>
<stop offset="1" stop-color="#000" stop-opacity="0.7"/>
</linearGradient>
<filter id="glow"><feGaussianBlur stdDeviation="1.1" result="b"/><feMerge><feMergeNode in="b"/><feMergeNode in="SourceGraphic"/></feMerge></filter>
</defs>
<rect width="1200" height="170" fill="#000"/>
<g transform="translate(0 -127)">
<animateTransform attributeName="transform" type="translate" from="0 -127" to="0 303" dur="4.21s" begin="2.4s" repeatCount="indefinite"/>
<text font-family="Courier New, monospace" font-size="21" text-anchor="middle" filter="url(#glow)"><tspan x="27" y="21" fill="#CCFFCC" font-weight="700">ﾕ</tspan><tspan x="27" y="42" fill="#00FF41" opacity="0.93">ﾖ</tspan><tspan x="27" y="63" fill="#00FF41" opacity="0.86">2</tspan><tspan x="27" y="84" fill="#00FF41" opacity="0.79">ｻ</tspan><tspan x="27" y="105" fill="#00FF41" opacity="0.71">5</tspan><tspan x="27" y="126" fill="#00FF41" opacity="0.64">8</tspan><tspan x="27" y="147" fill="#00FF41" opacity="0.57">ﾆ</tspan><tspan x="27" y="168" fill="#00FF41" opacity="0.5">ﾉ</tspan><tspan x="27" y="189" fill="#00FF41" opacity="0.43">ﾙ</tspan><tspan x="27" y="210" fill="#00FF41" opacity="0.36">6</tspan><tspan x="27" y="231" fill="#00FF41" opacity="0.29">ﾈ</tspan><tspan x="27" y="252" fill="#00FF41" opacity="0.21">ﾄ</tspan><tspan x="27" y="273" fill="#00FF41" opacity="0.14">ﾊ</tspan><tspan x="27" y="294" fill="#00FF41" opacity="0.12">0</tspan></text>
</g>
<g transform="translate(0 -127)">
<animateTransform attributeName="transform" type="translate" from="0 -127" to="0 303" dur="3.13s" begin="2.95s" repeatCount="indefinite"/>
<text font-family="Courier New, monospace" font-size="21" text-anchor="middle" filter="url(#glow)"><tspan x="81" y="21" fill="#CCFFCC" font-weight="700">ｷ</tspan><tspan x="81" y="42" fill="#00FF41" opacity="0.93">ﾌ</tspan><tspan x="81" y="63" fill="#00FF41" opacity="0.86">8</tspan><tspan x="81" y="84" fill="#00FF41" opacity="0.79">ﾙ</tspan><tspan x="81" y="105" fill="#00FF41" opacity="0.71">ﾊ</tspan><tspan x="81" y="126" fill="#00FF41" opacity="0.64">ｵ</tspan><tspan x="81" y="147" fill="#00FF41" opacity="0.57">ﾑ</tspan><tspan x="81" y="168" fill="#00FF41" opacity="0.5">0</tspan><tspan x="81" y="189" fill="#00FF41" opacity="0.43">ﾛ</tspan><tspan x="81" y="210" fill="#00FF41" opacity="0.36">ﾇ</tspan><tspan x="81" y="231" fill="#00FF41" opacity="0.29">ﾊ</tspan><tspan x="81" y="252" fill="#00FF41" opacity="0.21">ﾊ</tspan><tspan x="81" y="273" fill="#00FF41" opacity="0.14">7</tspan><tspan x="81" y="294" fill="#00FF41" opacity="0.12">3</tspan></text>
</g>
<g transform="translate(0 -130)">
<animateTransform attributeName="transform" type="translate" from="0 -130" to="0 300" dur="4.68s" begin="2.99s" repeatCount="indefinite"/>
<text font-family="Courier New, monospace" font-size="21" text-anchor="middle" filter="url(#glow)"><tspan x="135" y="21" fill="#CCFFCC" font-weight="700">ﾗ</tspan><tspan x="135" y="42" fill="#00FF41" opacity="0.93">ｸ</tspan><tspan x="135" y="63" fill="#00FF41" opacity="0.86">ﾎ</tspan><tspan x="135" y="84" fill="#00FF41" opacity="0.79">ﾀ</tspan><tspan x="135" y="105" fill="#00FF41" opacity="0.71">ｻ</tspan><tspan x="135" y="126" fill="#00FF41" opacity="0.64">6</tspan><tspan x="135" y="147" fill="#00FF41" opacity="0.57">ﾅ</tspan><tspan x="135" y="168" fill="#00FF41" opacity="0.5">ﾜ</tspan><tspan x="135" y="189" fill="#00FF41" opacity="0.43">0</tspan><tspan x="135" y="210" fill="#00FF41" opacity="0.36">ﾗ</tspan><tspan x="135" y="231" fill="#00FF41" opacity="0.29">ﾎ</tspan><tspan x="135" y="252" fill="#00FF41" opacity="0.21">ﾗ</tspan><tspan x="135" y="273" fill="#00FF41" opacity="0.14">ﾁ</tspan><tspan x="135" y="294" fill="#00FF41" opacity="0.12">7</tspan></text>
</g>
<g transform="translate(0 -86)">
<animateTransform attributeName="transform" type="translate" from="0 -86" to="0 344" dur="3.12s" begin="0.3s" repeatCount="indefinite"/>
<text font-family="Courier New, monospace" font-size="21" text-anchor="middle" filter="url(#glow)"><tspan x="189" y="21" fill="#CCFFCC" font-weight="700">ﾘ</tspan><tspan x="189" y="42" fill="#00FF41" opacity="0.93">ﾕ</tspan><tspan x="189" y="63" fill="#00FF41" opacity="0.86">5</tspan><tspan x="189" y="84" fill="#00FF41" opacity="0.79">ｳ</tspan><tspan x="189" y="105" fill="#00FF41" opacity="0.71">ｵ</tspan><tspan x="189" y="126" fill="#00FF41" opacity="0.64">ﾋ</tspan><tspan x="189" y="147" fill="#00FF41" opacity="0.57">ﾚ</tspan><tspan x="189" y="168" fill="#00FF41" opacity="0.5">ﾘ</tspan><tspan x="189" y="189" fill="#00FF41" opacity="0.43">ｴ</tspan><tspan x="189" y="210" fill="#00FF41" opacity="0.36">ﾜ</tspan><tspan x="189" y="231" fill="#00FF41" opacity="0.29">ｲ</tspan><tspan x="189" y="252" fill="#00FF41" opacity="0.21">ﾙ</tspan><tspan x="189" y="273" fill="#00FF41" opacity="0.14">ｽ</tspan><tspan x="189" y="294" fill="#00FF41" opacity="0.12">ｽ</tspan></text>
</g>
<g transform="translate(0 -75)">
<animateTransform attributeName="transform" type="translate" from="0 -75" to="0 355" dur="2.87s" begin="0.88s" repeatCount="indefinite"/>
<text font-family="Courier New, monospace" font-size="21" text-anchor="middle" filter="url(#glow)"><tspan x="243" y="21" fill="#CCFFCC" font-weight="700">ﾅ</tspan><tspan x="243" y="42" fill="#00FF41" opacity="0.93">ｱ</tspan><tspan x="243" y="63" fill="#00FF41" opacity="0.86">6</tspan><tspan x="243" y="84" fill="#00FF41" opacity="0.79">ﾘ</tspan><tspan x="243" y="105" fill="#00FF41" opacity="0.71">ﾆ</tspan><tspan x="243" y="126" fill="#00FF41" opacity="0.64">ﾌ</tspan><tspan x="243" y="147" fill="#00FF41" opacity="0.57">ﾕ</tspan><tspan x="243" y="168" fill="#00FF41" opacity="0.5">6</tspan><tspan x="243" y="189" fill="#00FF41" opacity="0.43">ｿ</tspan><tspan x="243" y="210" fill="#00FF41" opacity="0.36">ﾔ</tspan><tspan x="243" y="231" fill="#00FF41" opacity="0.29">ｳ</tspan><tspan x="243" y="252" fill="#00FF41" opacity="0.21">5</tspan><tspan x="243" y="273" fill="#00FF41" opacity="0.14">ﾔ</tspan><tspan x="243" y="294" fill="#00FF41" opacity="0.12">2</tspan></text>
</g>
<g transform="translate(0 -166)">
<animateTransform attributeName="transform" type="translate" from="0 -166" to="0 264" dur="4.28s" begin="3.82s" repeatCount="indefinite"/>
<text font-family="Courier New, monospace" font-size="21" text-anchor="middle" filter="url(#glow)"><tspan x="297" y="21" fill="#CCFFCC" font-weight="700">ﾘ</tspan><tspan x="297" y="42" fill="#00FF41" opacity="0.93">ｼ</tspan><tspan x="297" y="63" fill="#00FF41" opacity="0.86">ﾒ</tspan><tspan x="297" y="84" fill="#00FF41" opacity="0.79">ﾒ</tspan><tspan x="297" y="105" fill="#00FF41" opacity="0.71">ﾒ</tspan><tspan x="297" y="126" fill="#00FF41" opacity="0.64">ｼ</tspan><tspan x="297" y="147" fill="#00FF41" opacity="0.57">5</tspan><tspan x="297" y="168" fill="#00FF41" opacity="0.5">ﾛ</tspan><tspan x="297" y="189" fill="#00FF41" opacity="0.43">ｴ</tspan><tspan x="297" y="210" fill="#00FF41" opacity="0.36">3</tspan><tspan x="297" y="231" fill="#00FF41" opacity="0.29">ﾐ</tspan><tspan x="297" y="252" fill="#00FF41" opacity="0.21">1</tspan><tspan x="297" y="273" fill="#00FF41" opacity="0.14">3</tspan><tspan x="297" y="294" fill="#00FF41" opacity="0.12">ﾖ</tspan></text>
</g>
<g transform="translate(0 -87)">
<animateTransform attributeName="transform" type="translate" from="0 -87" to="0 343" dur="3.78s" begin="4.04s" repeatCount="indefinite"/>
<text font-family="Courier New, monospace" font-size="21" text-anchor="middle" filter="url(#glow)"><tspan x="351" y="21" fill="#CCFFCC" font-weight="700">ﾐ</tspan><tspan x="351" y="42" fill="#00FF41" opacity="0.93">ﾓ</tspan><tspan x="351" y="63" fill="#00FF41" opacity="0.86">4</tspan><tspan x="351" y="84" fill="#00FF41" opacity="0.79">ﾚ</tspan><tspan x="351" y="105" fill="#00FF41" opacity="0.71">2</tspan><tspan x="351" y="126" fill="#00FF41" opacity="0.64">ﾇ</tspan><tspan x="351" y="147" fill="#00FF41" opacity="0.57">3</tspan><tspan x="351" y="168" fill="#00FF41" opacity="0.5">ﾔ</tspan><tspan x="351" y="189" fill="#00FF41" opacity="0.43">7</tspan><tspan x="351" y="210" fill="#00FF41" opacity="0.36">ﾕ</tspan><tspan x="351" y="231" fill="#00FF41" opacity="0.29">ﾚ</tspan><tspan x="351" y="252" fill="#00FF41" opacity="0.21">ﾁ</tspan><tspan x="351" y="273" fill="#00FF41" opacity="0.14">ﾁ</tspan><tspan x="351" y="294" fill="#00FF41" opacity="0.12">ｵ</tspan></text>
</g>
<g transform="translate(0 -177)">
<animateTransform attributeName="transform" type="translate" from="0 -177" to="0 253" dur="4.44s" begin="4.27s" repeatCount="indefinite"/>
<text font-family="Courier New, monospace" font-size="21" text-anchor="middle" filter="url(#glow)"><tspan x="405" y="21" fill="#CCFFCC" font-weight="700">ﾅ</tspan><tspan x="405" y="42" fill="#00FF41" opacity="0.93">8</tspan><tspan x="405" y="63" fill="#00FF41" opacity="0.86">ｶ</tspan><tspan x="405" y="84" fill="#00FF41" opacity="0.79">ｽ</tspan><tspan x="405" y="105" fill="#00FF41" opacity="0.71">ﾍ</tspan><tspan x="405" y="126" fill="#00FF41" opacity="0.64">ﾓ</tspan><tspan x="405" y="147" fill="#00FF41" opacity="0.57">9</tspan><tspan x="405" y="168" fill="#00FF41" opacity="0.5">ﾁ</tspan><tspan x="405" y="189" fill="#00FF41" opacity="0.43">ｴ</tspan><tspan x="405" y="210" fill="#00FF41" opacity="0.36">ﾔ</tspan><tspan x="405" y="231" fill="#00FF41" opacity="0.29">ｺ</tspan><tspan x="405" y="252" fill="#00FF41" opacity="0.21">ﾌ</tspan><tspan x="405" y="273" fill="#00FF41" opacity="0.14">ﾇ</tspan><tspan x="405" y="294" fill="#00FF41" opacity="0.12">ﾗ</tspan></text>
</g>
<g transform="translate(0 -210)">
<animateTransform attributeName="transform" type="translate" from="0 -210" to="0 220" dur="4.46s" begin="4.08s" repeatCount="indefinite"/>
<text font-family="Courier New, monospace" font-size="21" text-anchor="middle" filter="url(#glow)"><tspan x="459" y="21" fill="#CCFFCC" font-weight="700">ﾌ</tspan><tspan x="459" y="42" fill="#00FF41" opacity="0.93">ﾃ</tspan><tspan x="459" y="63" fill="#00FF41" opacity="0.86">3</tspan><tspan x="459" y="84" fill="#00FF41" opacity="0.79">ｺ</tspan><tspan x="459" y="105" fill="#00FF41" opacity="0.71">ｴ</tspan><tspan x="459" y="126" fill="#00FF41" opacity="0.64">ﾙ</tspan><tspan x="459" y="147" fill="#00FF41" opacity="0.57">ﾎ</tspan><tspan x="459" y="168" fill="#00FF41" opacity="0.5">ﾇ</tspan><tspan x="459" y="189" fill="#00FF41" opacity="0.43">ﾉ</tspan><tspan x="459" y="210" fill="#00FF41" opacity="0.36">ｵ</tspan><tspan x="459" y="231" fill="#00FF41" opacity="0.29">ｾ</tspan><tspan x="459" y="252" fill="#00FF41" opacity="0.21">ﾇ</tspan><tspan x="459" y="273" fill="#00FF41" opacity="0.14">ﾛ</tspan><tspan x="459" y="294" fill="#00FF41" opacity="0.12">ﾜ</tspan></text>
</g>
<g transform="translate(0 -166)">
<animateTransform attributeName="transform" type="translate" from="0 -166" to="0 264" dur="4.27s" begin="1.19s" repeatCount="indefinite"/>
<text font-family="Courier New, monospace" font-size="21" text-anchor="middle" filter="url(#glow)"><tspan x="513" y="21" fill="#CCFFCC" font-weight="700">ｽ</tspan><tspan x="513" y="42" fill="#00FF41" opacity="0.93">ｹ</tspan><tspan x="513" y="63" fill="#00FF41" opacity="0.86">ﾏ</tspan><tspan x="513" y="84" fill="#00FF41" opacity="0.79">ﾊ</tspan><tspan x="513" y="105" fill="#00FF41" opacity="0.71">ﾘ</tspan><tspan x="513" y="126" fill="#00FF41" opacity="0.64">ﾌ</tspan><tspan x="513" y="147" fill="#00FF41" opacity="0.57">ﾔ</tspan><tspan x="513" y="168" fill="#00FF41" opacity="0.5">ﾁ</tspan><tspan x="513" y="189" fill="#00FF41" opacity="0.43">ｻ</tspan><tspan x="513" y="210" fill="#00FF41" opacity="0.36">ｿ</tspan><tspan x="513" y="231" fill="#00FF41" opacity="0.29">1</tspan><tspan x="513" y="252" fill="#00FF41" opacity="0.21">9</tspan><tspan x="513" y="273" fill="#00FF41" opacity="0.14">ﾆ</tspan><tspan x="513" y="294" fill="#00FF41" opacity="0.12">ﾊ</tspan></text>
</g>
<g transform="translate(0 -61)">
<animateTransform attributeName="transform" type="translate" from="0 -61" to="0 369" dur="4.22s" begin="3.61s" repeatCount="indefinite"/>
<text font-family="Courier New, monospace" font-size="21" text-anchor="middle" filter="url(#glow)"><tspan x="567" y="21" fill="#CCFFCC" font-weight="700">ﾋ</tspan><tspan x="567" y="42" fill="#00FF41" opacity="0.93">ｻ</tspan><tspan x="567" y="63" fill="#00FF41" opacity="0.86">1</tspan><tspan x="567" y="84" fill="#00FF41" opacity="0.79">ﾏ</tspan><tspan x="567" y="105" fill="#00FF41" opacity="0.71">ﾘ</tspan><tspan x="567" y="126" fill="#00FF41" opacity="0.64">0</tspan><tspan x="567" y="147" fill="#00FF41" opacity="0.57">ﾙ</tspan><tspan x="567" y="168" fill="#00FF41" opacity="0.5">ﾅ</tspan><tspan x="567" y="189" fill="#00FF41" opacity="0.43">ｳ</tspan><tspan x="567" y="210" fill="#00FF41" opacity="0.36">ｲ</tspan><tspan x="567" y="231" fill="#00FF41" opacity="0.29">ﾓ</tspan><tspan x="567" y="252" fill="#00FF41" opacity="0.21">ﾗ</tspan><tspan x="567" y="273" fill="#00FF41" opacity="0.14">ｽ</tspan><tspan x="567" y="294" fill="#00FF41" opacity="0.12">ﾚ</tspan></text>
</g>
<g transform="translate(0 -81)">
<animateTransform attributeName="transform" type="translate" from="0 -81" to="0 349" dur="3.74s" begin="3.43s" repeatCount="indefinite"/>
<text font-family="Courier New, monospace" font-size="21" text-anchor="middle" filter="url(#glow)"><tspan x="621" y="21" fill="#CCFFCC" font-weight="700">ﾅ</tspan><tspan x="621" y="42" fill="#00FF41" opacity="0.93">5</tspan><tspan x="621" y="63" fill="#00FF41" opacity="0.86">ﾊ</tspan><tspan x="621" y="84" fill="#00FF41" opacity="0.79">ﾇ</tspan><tspan x="621" y="105" fill="#00FF41" opacity="0.71">ｿ</tspan><tspan x="621" y="126" fill="#00FF41" opacity="0.64">ﾄ</tspan><tspan x="621" y="147" fill="#00FF41" opacity="0.57">ﾍ</tspan><tspan x="621" y="168" fill="#00FF41" opacity="0.5">ﾖ</tspan><tspan x="621" y="189" fill="#00FF41" opacity="0.43">ﾉ</tspan><tspan x="621" y="210" fill="#00FF41" opacity="0.36">ﾙ</tspan><tspan x="621" y="231" fill="#00FF41" opacity="0.29">ﾉ</tspan><tspan x="621" y="252" fill="#00FF41" opacity="0.21">ｺ</tspan><tspan x="621" y="273" fill="#00FF41" opacity="0.14">ﾘ</tspan><tspan x="621" y="294" fill="#00FF41" opacity="0.12">8</tspan></text>
</g>
<g transform="translate(0 -122)">
<animateTransform attributeName="transform" type="translate" from="0 -122" to="0 308" dur="3.32s" begin="3.36s" repeatCount="indefinite"/>
<text font-family="Courier New, monospace" font-size="21" text-anchor="middle" filter="url(#glow)"><tspan x="675" y="21" fill="#CCFFCC" font-weight="700">8</tspan><tspan x="675" y="42" fill="#00FF41" opacity="0.93">1</tspan><tspan x="675" y="63" fill="#00FF41" opacity="0.86">ｶ</tspan><tspan x="675" y="84" fill="#00FF41" opacity="0.79">ﾎ</tspan><tspan x="675" y="105" fill="#00FF41" opacity="0.71">0</tspan><tspan x="675" y="126" fill="#00FF41" opacity="0.64">ｱ</tspan><tspan x="675" y="147" fill="#00FF41" opacity="0.57">ﾆ</tspan><tspan x="675" y="168" fill="#00FF41" opacity="0.5">ｶ</tspan><tspan x="675" y="189" fill="#00FF41" opacity="0.43">9</tspan><tspan x="675" y="210" fill="#00FF41" opacity="0.36">ﾂ</tspan><tspan x="675" y="231" fill="#00FF41" opacity="0.29">ﾐ</tspan><tspan x="675" y="252" fill="#00FF41" opacity="0.21">ﾒ</tspan><tspan x="675" y="273" fill="#00FF41" opacity="0.14">8</tspan><tspan x="675" y="294" fill="#00FF41" opacity="0.12">ﾗ</tspan></text>
</g>
<g transform="translate(0 -211)">
<animateTransform attributeName="transform" type="translate" from="0 -211" to="0 219" dur="4.96s" begin="4.48s" repeatCount="indefinite"/>
<text font-family="Courier New, monospace" font-size="21" text-anchor="middle" filter="url(#glow)"><tspan x="729" y="21" fill="#CCFFCC" font-weight="700">ﾑ</tspan><tspan x="729" y="42" fill="#00FF41" opacity="0.93">ﾖ</tspan><tspan x="729" y="63" fill="#00FF41" opacity="0.86">ﾉ</tspan><tspan x="729" y="84" fill="#00FF41" opacity="0.79">ｽ</tspan><tspan x="729" y="105" fill="#00FF41" opacity="0.71">ﾙ</tspan><tspan x="729" y="126" fill="#00FF41" opacity="0.64">ﾍ</tspan><tspan x="729" y="147" fill="#00FF41" opacity="0.57">ｸ</tspan><tspan x="729" y="168" fill="#00FF41" opacity="0.5">ﾛ</tspan><tspan x="729" y="189" fill="#00FF41" opacity="0.43">ﾀ</tspan><tspan x="729" y="210" fill="#00FF41" opacity="0.36">ﾄ</tspan><tspan x="729" y="231" fill="#00FF41" opacity="0.29">ｴ</tspan><tspan x="729" y="252" fill="#00FF41" opacity="0.21">ﾐ</tspan><tspan x="729" y="273" fill="#00FF41" opacity="0.14">6</tspan><tspan x="729" y="294" fill="#00FF41" opacity="0.12">1</tspan></text>
</g>
<g transform="translate(0 -150)">
<animateTransform attributeName="transform" type="translate" from="0 -150" to="0 280" dur="3.15s" begin="2.41s" repeatCount="indefinite"/>
<text font-family="Courier New, monospace" font-size="21" text-anchor="middle" filter="url(#glow)"><tspan x="783" y="21" fill="#CCFFCC" font-weight="700">ﾖ</tspan><tspan x="783" y="42" fill="#00FF41" opacity="0.93">ｷ</tspan><tspan x="783" y="63" fill="#00FF41" opacity="0.86">ﾜ</tspan><tspan x="783" y="84" fill="#00FF41" opacity="0.79">ﾜ</tspan><tspan x="783" y="105" fill="#00FF41" opacity="0.71">ｺ</tspan><tspan x="783" y="126" fill="#00FF41" opacity="0.64">ﾑ</tspan><tspan x="783" y="147" fill="#00FF41" opacity="0.57">5</tspan><tspan x="783" y="168" fill="#00FF41" opacity="0.5">ﾖ</tspan><tspan x="783" y="189" fill="#00FF41" opacity="0.43">ﾛ</tspan><tspan x="783" y="210" fill="#00FF41" opacity="0.36">ﾚ</tspan><tspan x="783" y="231" fill="#00FF41" opacity="0.29">ｳ</tspan><tspan x="783" y="252" fill="#00FF41" opacity="0.21">ﾚ</tspan><tspan x="783" y="273" fill="#00FF41" opacity="0.14">ﾔ</tspan><tspan x="783" y="294" fill="#00FF41" opacity="0.12">ﾐ</tspan></text>
</g>
<g transform="translate(0 -101)">
<animateTransform attributeName="transform" type="translate" from="0 -101" to="0 329" dur="3.37s" begin="0.67s" repeatCount="indefinite"/>
<text font-family="Courier New, monospace" font-size="21" text-anchor="middle" filter="url(#glow)"><tspan x="837" y="21" fill="#CCFFCC" font-weight="700">ｶ</tspan><tspan x="837" y="42" fill="#00FF41" opacity="0.93">ﾚ</tspan><tspan x="837" y="63" fill="#00FF41" opacity="0.86">2</tspan><tspan x="837" y="84" fill="#00FF41" opacity="0.79">ﾘ</tspan><tspan x="837" y="105" fill="#00FF41" opacity="0.71">ﾐ</tspan><tspan x="837" y="126" fill="#00FF41" opacity="0.64">ﾎ</tspan><tspan x="837" y="147" fill="#00FF41" opacity="0.57">3</tspan><tspan x="837" y="168" fill="#00FF41" opacity="0.5">2</tspan><tspan x="837" y="189" fill="#00FF41" opacity="0.43">ｲ</tspan><tspan x="837" y="210" fill="#00FF41" opacity="0.36">ｼ</tspan><tspan x="837" y="231" fill="#00FF41" opacity="0.29">6</tspan><tspan x="837" y="252" fill="#00FF41" opacity="0.21">ｽ</tspan><tspan x="837" y="273" fill="#00FF41" opacity="0.14">ｻ</tspan><tspan x="837" y="294" fill="#00FF41" opacity="0.12">ﾀ</tspan></text>
</g>
<g transform="translate(0 -59)">
<animateTransform attributeName="transform" type="translate" from="0 -59" to="0 371" dur="4.55s" begin="2.92s" repeatCount="indefinite"/>
<text font-family="Courier New, monospace" font-size="21" text-anchor="middle" filter="url(#glow)"><tspan x="891" y="21" fill="#CCFFCC" font-weight="700">7</tspan><tspan x="891" y="42" fill="#00FF41" opacity="0.93">ﾍ</tspan><tspan x="891" y="63" fill="#00FF41" opacity="0.86">ﾎ</tspan><tspan x="891" y="84" fill="#00FF41" opacity="0.79">1</tspan><tspan x="891" y="105" fill="#00FF41" opacity="0.71">7</tspan><tspan x="891" y="126" fill="#00FF41" opacity="0.64">ﾊ</tspan><tspan x="891" y="147" fill="#00FF41" opacity="0.57">ﾜ</tspan><tspan x="891" y="168" fill="#00FF41" opacity="0.5">ﾄ</tspan><tspan x="891" y="189" fill="#00FF41" opacity="0.43">4</tspan><tspan x="891" y="210" fill="#00FF41" opacity="0.36">ﾅ</tspan><tspan x="891" y="231" fill="#00FF41" opacity="0.29">ｲ</tspan><tspan x="891" y="252" fill="#00FF41" opacity="0.21">0</tspan><tspan x="891" y="273" fill="#00FF41" opacity="0.14">ﾌ</tspan><tspan x="891" y="294" fill="#00FF41" opacity="0.12">ﾇ</tspan></text>
</g>
<g transform="translate(0 -177)">
<animateTransform attributeName="transform" type="translate" from="0 -177" to="0 253" dur="4.66s" begin="0.46s" repeatCount="indefinite"/>
<text font-family="Courier New, monospace" font-size="21" text-anchor="middle" filter="url(#glow)"><tspan x="945" y="21" fill="#CCFFCC" font-weight="700">ｶ</tspan><tspan x="945" y="42" fill="#00FF41" opacity="0.93">1</tspan><tspan x="945" y="63" fill="#00FF41" opacity="0.86">ｱ</tspan><tspan x="945" y="84" fill="#00FF41" opacity="0.79">ﾄ</tspan><tspan x="945" y="105" fill="#00FF41" opacity="0.71">ﾙ</tspan><tspan x="945" y="126" fill="#00FF41" opacity="0.64">ﾛ</tspan><tspan x="945" y="147" fill="#00FF41" opacity="0.57">ｽ</tspan><tspan x="945" y="168" fill="#00FF41" opacity="0.5">ｻ</tspan><tspan x="945" y="189" fill="#00FF41" opacity="0.43">ﾜ</tspan><tspan x="945" y="210" fill="#00FF41" opacity="0.36">ｽ</tspan><tspan x="945" y="231" fill="#00FF41" opacity="0.29">ｷ</tspan><tspan x="945" y="252" fill="#00FF41" opacity="0.21">ｶ</tspan><tspan x="945" y="273" fill="#00FF41" opacity="0.14">ｻ</tspan><tspan x="945" y="294" fill="#00FF41" opacity="0.12">ﾔ</tspan></text>
</g>
<g transform="translate(0 -68)">
<animateTransform attributeName="transform" type="translate" from="0 -68" to="0 362" dur="4.27s" begin="1.82s" repeatCount="indefinite"/>
<text font-family="Courier New, monospace" font-size="21" text-anchor="middle" filter="url(#glow)"><tspan x="999" y="21" fill="#CCFFCC" font-weight="700">ﾀ</tspan><tspan x="999" y="42" fill="#00FF41" opacity="0.93">ｴ</tspan><tspan x="999" y="63" fill="#00FF41" opacity="0.86">ﾌ</tspan><tspan x="999" y="84" fill="#00FF41" opacity="0.79">ｿ</tspan><tspan x="999" y="105" fill="#00FF41" opacity="0.71">ﾜ</tspan><tspan x="999" y="126" fill="#00FF41" opacity="0.64">6</tspan><tspan x="999" y="147" fill="#00FF41" opacity="0.57">ﾋ</tspan><tspan x="999" y="168" fill="#00FF41" opacity="0.5">ﾆ</tspan><tspan x="999" y="189" fill="#00FF41" opacity="0.43">ﾔ</tspan><tspan x="999" y="210" fill="#00FF41" opacity="0.36">ﾎ</tspan><tspan x="999" y="231" fill="#00FF41" opacity="0.29">ﾏ</tspan><tspan x="999" y="252" fill="#00FF41" opacity="0.21">3</tspan><tspan x="999" y="273" fill="#00FF41" opacity="0.14">ｽ</tspan><tspan x="999" y="294" fill="#00FF41" opacity="0.12">ｵ</tspan></text>
</g>
<g transform="translate(0 -51)">
<animateTransform attributeName="transform" type="translate" from="0 -51" to="0 379" dur="2.79s" begin="3.82s" repeatCount="indefinite"/>
<text font-family="Courier New, monospace" font-size="21" text-anchor="middle" filter="url(#glow)"><tspan x="1053" y="21" fill="#CCFFCC" font-weight="700">ｹ</tspan><tspan x="1053" y="42" fill="#00FF41" opacity="0.93">ﾈ</tspan><tspan x="1053" y="63" fill="#00FF41" opacity="0.86">ﾂ</tspan><tspan x="1053" y="84" fill="#00FF41" opacity="0.79">ﾖ</tspan><tspan x="1053" y="105" fill="#00FF41" opacity="0.71">ﾉ</tspan><tspan x="1053" y="126" fill="#00FF41" opacity="0.64">ｲ</tspan><tspan x="1053" y="147" fill="#00FF41" opacity="0.57">ｱ</tspan><tspan x="1053" y="168" fill="#00FF41" opacity="0.5">7</tspan><tspan x="1053" y="189" fill="#00FF41" opacity="0.43">ﾜ</tspan><tspan x="1053" y="210" fill="#00FF41" opacity="0.36">ﾀ</tspan><tspan x="1053" y="231" fill="#00FF41" opacity="0.29">ｴ</tspan><tspan x="1053" y="252" fill="#00FF41" opacity="0.21">ﾓ</tspan><tspan x="1053" y="273" fill="#00FF41" opacity="0.14">ﾔ</tspan><tspan x="1053" y="294" fill="#00FF41" opacity="0.12">ｸ</tspan></text>
</g>
<g transform="translate(0 -149)">
<animateTransform attributeName="transform" type="translate" from="0 -149" to="0 281" dur="4.8s" begin="4.38s" repeatCount="indefinite"/>
<text font-family="Courier New, monospace" font-size="21" text-anchor="middle" filter="url(#glow)"><tspan x="1107" y="21" fill="#CCFFCC" font-weight="700">ﾒ</tspan><tspan x="1107" y="42" fill="#00FF41" opacity="0.93">ﾔ</tspan><tspan x="1107" y="63" fill="#00FF41" opacity="0.86">ﾃ</tspan><tspan x="1107" y="84" fill="#00FF41" opacity="0.79">ｺ</tspan><tspan x="1107" y="105" fill="#00FF41" opacity="0.71">0</tspan><tspan x="1107" y="126" fill="#00FF41" opacity="0.64">ｱ</tspan><tspan x="1107" y="147" fill="#00FF41" opacity="0.57">ﾋ</tspan><tspan x="1107" y="168" fill="#00FF41" opacity="0.5">ﾄ</tspan><tspan x="1107" y="189" fill="#00FF41" opacity="0.43">ﾐ</tspan><tspan x="1107" y="210" fill="#00FF41" opacity="0.36">ﾈ</tspan><tspan x="1107" y="231" fill="#00FF41" opacity="0.29">ｳ</tspan><tspan x="1107" y="252" fill="#00FF41" opacity="0.21">5</tspan><tspan x="1107" y="273" fill="#00FF41" opacity="0.14">ﾛ</tspan><tspan x="1107" y="294" fill="#00FF41" opacity="0.12">ﾅ</tspan></text>
</g>
<g transform="translate(0 -198)">
<animateTransform attributeName="transform" type="translate" from="0 -198" to="0 232" dur="2.63s" begin="2.71s" repeatCount="indefinite"/>
<text font-family="Courier New, monospace" font-size="21" text-anchor="middle" filter="url(#glow)"><tspan x="1161" y="21" fill="#CCFFCC" font-weight="700">4</tspan><tspan x="1161" y="42" fill="#00FF41" opacity="0.93">6</tspan><tspan x="1161" y="63" fill="#00FF41" opacity="0.86">ｴ</tspan><tspan x="1161" y="84" fill="#00FF41" opacity="0.79">8</tspan><tspan x="1161" y="105" fill="#00FF41" opacity="0.71">4</tspan><tspan x="1161" y="126" fill="#00FF41" opacity="0.64">ﾈ</tspan><tspan x="1161" y="147" fill="#00FF41" opacity="0.57">7</tspan><tspan x="1161" y="168" fill="#00FF41" opacity="0.5">ﾌ</tspan><tspan x="1161" y="189" fill="#00FF41" opacity="0.43">ﾘ</tspan><tspan x="1161" y="210" fill="#00FF41" opacity="0.36">ﾋ</tspan><tspan x="1161" y="231" fill="#00FF41" opacity="0.29">ﾊ</tspan><tspan x="1161" y="252" fill="#00FF41" opacity="0.21">ﾏ</tspan><tspan x="1161" y="273" fill="#00FF41" opacity="0.14">ｼ</tspan><tspan x="1161" y="294" fill="#00FF41" opacity="0.12">ｱ</tspan></text>
</g>
<rect width="1200" height="170" fill="url(#fade)"/>
</svg>