<svg xmlns="http://www.w3.org/2000/svg" width="100%" height="200" viewBox="0 0 1200 200" preserveAspectRatio="xMidYMid slice">
<defs>
<linearGradient id="fade" x1="0" y1="0" x2="0" y2="1">
<stop offset="0" stop-color="#000" stop-opacity="0.6"/>
<stop offset="0.22" stop-color="#000" stop-opacity="0"/>
<stop offset="0.85" stop-color="#000" stop-opacity="0"/>
<stop offset="1" stop-color="#000" stop-opacity="0.75"/>
</linearGradient>
<filter id="glow"><feGaussianBlur stdDeviation="1.1" result="b"/><feMerge><feMergeNode in="b"/><feMergeNode in="SourceGraphic"/></feMerge></filter>
</defs>
<rect width="1200" height="200" fill="#000"/>
<g transform="translate(0 -190)">
<animateTransform attributeName="transform" type="translate" from="0 -190" to="0 310" dur="4.53s" begin="0.1s" repeatCount="indefinite"/>
<text font-family="Courier New, monospace" font-size="19" text-anchor="middle" filter="url(#glow)"><tspan x="27" y="19" fill="#CCFFCC" font-weight="700">A</tspan><tspan x="27" y="38" fill="#00FF41" opacity="0.94">N</tspan><tspan x="27" y="57" fill="#00FF41" opacity="0.88">D</tspan><tspan x="27" y="76" fill="#00FF41" opacity="0.81">A</tspan><tspan x="27" y="95" fill="#00FF41" opacity="0.75">C</tspan><tspan x="27" y="114" fill="#00FF41" opacity="0.69">V</tspan><tspan x="27" y="133" fill="#00FF41" opacity="0.62">B</tspan><tspan x="27" y="152" fill="#00FF41" opacity="0.56">T</tspan><tspan x="27" y="171" fill="#00FF41" opacity="0.5">V</tspan><tspan x="27" y="190" fill="#00FF41" opacity="0.44">P</tspan><tspan x="27" y="209" fill="#00FF41" opacity="0.38">A</tspan><tspan x="27" y="228" fill="#00FF41" opacity="0.31">Q</tspan><tspan x="27" y="247" fill="#00FF41" opacity="0.25">L</tspan><tspan x="27" y="266" fill="#00FF41" opacity="0.19">8</tspan><tspan x="27" y="285" fill="#00FF41" opacity="0.12">3</tspan><tspan x="27" y="304" fill="#00FF41" opacity="0.12">A</tspan></text>
</g>
<g transform="translate(0 -254)">
<animateTransform attributeName="transform" type="translate" from="0 -254" to="0 246" dur="3.39s" begin="2.02s" repeatCount="indefinite"/>
<text font-family="Courier New, monospace" font-size="19" text-anchor="middle" filter="url(#glow)"><tspan x="81" y="19" fill="#CCFFCC" font-weight="700">U</tspan><tspan x="81" y="38" fill="#00FF41" opacity="0.94">S</tspan><tspan x="81" y="57" fill="#00FF41" opacity="0.88">U</tspan><tspan x="81" y="76" fill="#00FF41" opacity="0.81">P</tspan><tspan x="81" y="95" fill="#00FF41" opacity="0.75">L</tspan><tspan x="81" y="114" fill="#00FF41" opacity="0.69">F</tspan><tspan x="81" y="133" fill="#00FF41" opacity="0.62">M</tspan><tspan x="81" y="152" fill="#00FF41" opacity="0.56">Q</tspan><tspan x="81" y="171" fill="#00FF41" opacity="0.5">G</tspan><tspan x="81" y="190" fill="#00FF41" opacity="0.44">X</tspan><tspan x="81" y="209" fill="#00FF41" opacity="0.38">Z</tspan><tspan x="81" y="228" fill="#00FF41" opacity="0.31">3</tspan><tspan x="81" y="247" fill="#00FF41" opacity="0.25">W</tspan><tspan x="81" y="266" fill="#00FF41" opacity="0.19">X</tspan><tspan x="81" y="285" fill="#00FF41" opacity="0.12">D</tspan><tspan x="81" y="304" fill="#00FF41" opacity="0.12">U</tspan></text>
</g>
<g transform="translate(0 -205)">
<animateTransform attributeName="transform" type="translate" from="0 -205" to="0 295" dur="3.94s" begin="1.11s" repeatCount="indefinite"/>
<text font-family="Courier New, monospace" font-size="19" text-anchor="middle" filter="url(#glow)"><tspan x="135" y="19" fill="#CCFFCC" font-weight="700">I</tspan><tspan x="135" y="38" fill="#00FF41" opacity="0.94">B</tspan><tspan x="135" y="57" fill="#00FF41" opacity="0.88">A</tspan><tspan x="135" y="76" fill="#00FF41" opacity="0.81">K</tspan><tspan x="135" y="95" fill="#00FF41" opacity="0.75">B</tspan><tspan x="135" y="114" fill="#00FF41" opacity="0.69">J</tspan><tspan x="135" y="133" fill="#00FF41" opacity="0.62">Z</tspan><tspan x="135" y="152" fill="#00FF41" opacity="0.56">J</tspan><tspan x="135" y="171" fill="#00FF41" opacity="0.5">R</tspan><tspan x="135" y="190" fill="#00FF41" opacity="0.44">G</tspan><tspan x="135" y="209" fill="#00FF41" opacity="0.38">X</tspan><tspan x="135" y="228" fill="#00FF41" opacity="0.31">8</tspan><tspan x="135" y="247" fill="#00FF41" opacity="0.25">V</tspan><tspan x="135" y="266" fill="#00FF41" opacity="0.19">M</tspan><tspan x="135" y="285" fill="#00FF41" opacity="0.12">P</tspan><tspan x="135" y="304" fill="#00FF41" opacity="0.12">B</tspan></text>
</g>
<g transform="translate(0 -119)">
<animateTransform attributeName="transform" type="translate" from="0 -119" to="0 381" dur="5.43s" begin="1.51s" repeatCount="indefinite"/>
<text font-family="Courier New, monospace" font-size="19" text-anchor="middle" filter="url(#glow)"><tspan x="189" y="19" fill="#CCFFCC" font-weight="700">B</tspan><tspan x="189" y="38" fill="#00FF41" opacity="0.94">E</tspan><tspan x="189" y="57" fill="#00FF41" opacity="0.88">N</tspan><tspan x="189" y="76" fill="#00FF41" opacity="0.81">S</tspan><tspan x="189" y="95" fill="#00FF41" opacity="0.75">R</tspan><tspan x="189" y="114" fill="#00FF41" opacity="0.69">Z</tspan><tspan x="189" y="133" fill="#00FF41" opacity="0.62">J</tspan><tspan x="189" y="152" fill="#00FF41" opacity="0.56">Q</tspan><tspan x="189" y="171" fill="#00FF41" opacity="0.5">E</tspan><tspan x="189" y="190" fill="#00FF41" opacity="0.44">U</tspan><tspan x="189" y="209" fill="#00FF41" opacity="0.38">A</tspan><tspan x="189" y="228" fill="#00FF41" opacity="0.31">8</tspan><tspan x="189" y="247" fill="#00FF41" opacity="0.25">T</tspan><tspan x="189" y="266" fill="#00FF41" opacity="0.19">F</tspan><tspan x="189" y="285" fill="#00FF41" opacity="0.12">W</tspan><tspan x="189" y="304" fill="#00FF41" opacity="0.12">H</tspan></text>
</g>
<g transform="translate(0 -39)">
<animateTransform attributeName="transform" type="translate" from="0 -39" to="0 461" dur="5.46s" begin="3.42s" repeatCount="indefinite"/>
<text font-family="Courier New, monospace" font-size="19" text-anchor="middle" filter="url(#glow)"><tspan x="243" y="19" fill="#CCFFCC" font-weight="700">A</tspan><tspan x="243" y="38" fill="#00FF41" opacity="0.94">W</tspan><tspan x="243" y="57" fill="#00FF41" opacity="0.88">S</tspan><tspan x="243" y="76" fill="#00FF41" opacity="0.81">G</tspan><tspan x="243" y="95" fill="#00FF41" opacity="0.75">M</tspan><tspan x="243" y="114" fill="#00FF41" opacity="0.69">S</tspan><tspan x="243" y="133" fill="#00FF41" opacity="0.62">Y</tspan><tspan x="243" y="152" fill="#00FF41" opacity="0.56">J</tspan><tspan x="243" y="171" fill="#00FF41" opacity="0.5">D</tspan><tspan x="243" y="190" fill="#00FF41" opacity="0.44">J</tspan><tspan x="243" y="209" fill="#00FF41" opacity="0.38">J</tspan><tspan x="243" y="228" fill="#00FF41" opacity="0.31">E</tspan><tspan x="243" y="247" fill="#00FF41" opacity="0.25">T</tspan><tspan x="243" y="266" fill="#00FF41" opacity="0.19">G</tspan><tspan x="243" y="285" fill="#00FF41" opacity="0.12">U</tspan><tspan x="243" y="304" fill="#00FF41" opacity="0.12">T</tspan></text>
</g>
<g transform="translate(0 -217)">
<animateTransform attributeName="transform" type="translate" from="0 -217" to="0 283" dur="4.55s" begin="2.44s" repeatCount="indefinite"/>
<text font-family="Courier New, monospace" font-size="19" text-anchor="middle" filter="url(#glow)"><tspan x="297" y="19" fill="#CCFFCC" font-weight="700">D</tspan><tspan x="297" y="38" fill="#00FF41" opacity="0.94">O</tspan><tspan x="297" y="57" fill="#00FF41" opacity="0.88">C</tspan><tspan x="297" y="76" fill="#00FF41" opacity="0.81">K</tspan><tspan x="297" y="95" fill="#00FF41" opacity="0.75">E</tspan><tspan x="297" y="114" fill="#00FF41" opacity="0.69">R</tspan><tspan x="297" y="133" fill="#00FF41" opacity="0.62">F</tspan><tspan x="297" y="152" fill="#00FF41" opacity="0.56">D</tspan><tspan x="297" y="171" fill="#00FF41" opacity="0.5">M</tspan><tspan x="297" y="190" fill="#00FF41" opacity="0.44">K</tspan><tspan x="297" y="209" fill="#00FF41" opacity="0.38">G</tspan><tspan x="297" y="228" fill="#00FF41" opacity="0.31">S</tspan><tspan x="297" y="247" fill="#00FF41" opacity="0.25">U</tspan><tspan x="297" y="266" fill="#00FF41" opacity="0.19">P</tspan><tspan x="297" y="285" fill="#00FF41" opacity="0.12">F</tspan><tspan x="297" y="304" fill="#00FF41" opacity="0.12">T</tspan></text>
</g>
<g transform="translate(0 -246)">
<animateTransform attributeName="transform" type="translate" from="0 -246" to="0 254" dur="3.68s" begin="3.07s" repeatCount="indefinite"/>
<text font-family="Courier New, monospace" font-size="19" text-anchor="middle" filter="url(#glow)"><tspan x="351" y="19" fill="#CCFFCC" font-weight="700">P</tspan><tspan x="351" y="38" fill="#00FF41" opacity="0.94">Y</tspan><tspan x="351" y="57" fill="#00FF41" opacity="0.88">T</tspan><tspan x="351" y="76" fill="#00FF41" opacity="0.81">H</tspan><tspan x="351" y="95" fill="#00FF41" opacity="0.75">O</tspan><tspan x="351" y="114" fill="#00FF41" opacity="0.69">N</tspan><tspan x="351" y="133" fill="#00FF41" opacity="0.62">8</tspan><tspan x="351" y="152" fill="#00FF41" opacity="0.56">X</tspan><tspan x="351" y="171" fill="#00FF41" opacity="0.5">I</tspan><tspan x="351" y="190" fill="#00FF41" opacity="0.44">K</tspan><tspan x="351" y="209" fill="#00FF41" opacity="0.38">G</tspan><tspan x="351" y="228" fill="#00FF41" opacity="0.31">A</tspan><tspan x="351" y="247" fill="#00FF41" opacity="0.25">E</tspan><tspan x="351" y="266" fill="#00FF41" opacity="0.19">Q</tspan><tspan x="351" y="285" fill="#00FF41" opacity="0.12">U</tspan><tspan x="351" y="304" fill="#00FF41" opacity="0.12">I</tspan></text>
</g>
<g transform="translate(0 -34)">
<animateTransform attributeName="transform" type="translate" from="0 -34" to="0 466" dur="3.37s" begin="2.0s" repeatCount="indefinite"/>
<text font-family="Courier New, monospace" font-size="19" text-anchor="middle" filter="url(#glow)"><tspan x="405" y="19" fill="#CCFFCC" font-weight="700">M</tspan><tspan x="405" y="38" fill="#00FF41" opacity="0.94">C</tspan><tspan x="405" y="57" fill="#00FF41" opacity="0.88">G</tspan><tspan x="405" y="76" fill="#00FF41" opacity="0.81">C</tspan><tspan x="405" y="95" fill="#00FF41" opacity="0.75">F</tspan><tspan x="405" y="114" fill="#00FF41" opacity="0.69">V</tspan><tspan x="405" y="133" fill="#00FF41" opacity="0.62">P</tspan><tspan x="405" y="152" fill="#00FF41" opacity="0.56">P</tspan><tspan x="405" y="171" fill="#00FF41" opacity="0.5">G</tspan><tspan x="405" y="190" fill="#00FF41" opacity="0.44">V</tspan><tspan x="405" y="209" fill="#00FF41" opacity="0.38">Q</tspan><tspan x="405" y="228" fill="#00FF41" opacity="0.31">L</tspan><tspan x="405" y="247" fill="#00FF41" opacity="0.25">Q</tspan><tspan x="405" y="266" fill="#00FF41" opacity="0.19">K</tspan><tspan x="405" y="285" fill="#00FF41" opacity="0.12">J</tspan><tspan x="405" y="304" fill="#00FF41" opacity="0.12">F</tspan></text>
</g>
<g transform="translate(0 -134)">
<animateTransform attributeName="transform" type="translate" from="0 -134" to="0 366" dur="5.49s" begin="0.55s" repeatCount="indefinite"/>
<text font-family="Courier New, monospace" font-size="19" text-anchor="middle" filter="url(#glow)"><tspan x="459" y="19" fill="#CCFFCC" font-weight="700">N</tspan><tspan x="459" y="38" fill="#00FF41" opacity="0.94">8</tspan><tspan x="459" y="57" fill="#00FF41" opacity="0.88">N</tspan><tspan x="459" y="76" fill="#00FF41" opacity="0.81">8</tspan><tspan x="459" y="95" fill="#00FF41" opacity="0.75">Z</tspan><tspan x="459" y="114" fill="#00FF41" opacity="0.69">B</tspan><tspan x="459" y="133" fill="#00FF41" opacity="0.62">C</tspan><tspan x="459" y="152" fill="#00FF41" opacity="0.56">S</tspan><tspan x="459" y="171" fill="#00FF41" opacity="0.5">D</tspan><tspan x="459" y="190" fill="#00FF41" opacity="0.44">X</tspan><tspan x="459" y="209" fill="#00FF41" opacity="0.38">T</tspan><tspan x="459" y="228" fill="#00FF41" opacity="0.31">L</tspan><tspan x="459" y="247" fill="#00FF41" opacity="0.25">R</tspan><tspan x="459" y="266" fill="#00FF41" opacity="0.19">A</tspan><tspan x="459" y="285" fill="#00FF41" opacity="0.12">K</tspan><tspan x="459" y="304" fill="#00FF41" opacity="0.12">K</tspan></text>
</g>
<g transform="translate(0 -196)">
<animateTransform attributeName="transform" type="translate" from="0 -196" to="0 304" dur="4.41s" begin="1.87s" repeatCount="indefinite"/>
<text font-family="Courier New, monospace" font-size="19" text-anchor="middle" filter="url(#glow)"><tspan x="513" y="19" fill="#CCFFCC" font-weight="700">Z</tspan><tspan x="513" y="38" fill="#00FF41" opacity="0.94">3</tspan><tspan x="513" y="57" fill="#00FF41" opacity="0.88">T</tspan><tspan x="513" y="76" fill="#00FF41" opacity="0.81">V</tspan><tspan x="513" y="95" fill="#00FF41" opacity="0.75">B</tspan><tspan x="513" y="114" fill="#00FF41" opacity="0.69">T</tspan><tspan x="513" y="133" fill="#00FF41" opacity="0.62">P</tspan><tspan x="513" y="152" fill="#00FF41" opacity="0.56">W</tspan><tspan x="513" y="171" fill="#00FF41" opacity="0.5">G</tspan><tspan x="513" y="190" fill="#00FF41" opacity="0.44">W</tspan><tspan x="513" y="209" fill="#00FF41" opacity="0.38">S</tspan><tspan x="513" y="228" fill="#00FF41" opacity="0.31">I</tspan><tspan x="513" y="247" fill="#00FF41" opacity="0.25">B</tspan><tspan x="513" y="266" fill="#00FF41" opacity="0.19">H</tspan><tspan x="513" y="285" fill="#00FF41" opacity="0.12">L</tspan><tspan x="513" y="304" fill="#00FF41" opacity="0.12">D</tspan></text>
</g>
<g transform="translate(0 -36)">
<animateTransform attributeName="transform" type="translate" from="0 -36" to="0 464" dur="4.03s" begin="3.82s" repeatCount="indefinite"/>
<text font-family="Courier New, monospace" font-size="19" text-anchor="middle" filter="url(#glow)"><tspan x="567" y="19" fill="#CCFFCC" font-weight="700">O</tspan><tspan x="567" y="38" fill="#00FF41" opacity="0.94">W</tspan><tspan x="567" y="57" fill="#00FF41" opacity="0.88">D</tspan><tspan x="567" y="76" fill="#00FF41" opacity="0.81">O</tspan><tspan x="567" y="95" fill="#00FF41" opacity="0.75">B</tspan><tspan x="567" y="114" fill="#00FF41" opacity="0.69">Z</tspan><tspan x="567" y="133" fill="#00FF41" opacity="0.62">S</tspan><tspan x="567" y="152" fill="#00FF41" opacity="0.56">H</tspan><tspan x="567" y="171" fill="#00FF41" opacity="0.5">Y</tspan><tspan x="567" y="190" fill="#00FF41" opacity="0.44">S</tspan><tspan x="567" y="209" fill="#00FF41" opacity="0.38">O</tspan><tspan x="567" y="228" fill="#00FF41" opacity="0.31">R</tspan><tspan x="567" y="247" fill="#00FF41" opacity="0.25">E</tspan><tspan x="567" y="266" fill="#00FF41" opacity="0.19">C</tspan><tspan x="567" y="285" fill="#00FF41" opacity="0.12">J</tspan><tspan x="567" y="304" fill="#00FF41" opacity="0.12">W</tspan></text>
</g>
<g transform="translate(0 -125)">
<animateTransform attributeName="transform" type="translate" from="0 -125" to="0 375" dur="3.24s" begin="3.81s" repeatCount="indefinite"/>
<text font-family="Courier New, monospace" font-size="19" text-anchor="middle" filter="url(#glow)"><tspan x="621" y="19" fill="#CCFFCC" font-weight="700">R</tspan><tspan x="621" y="38" fill="#00FF41" opacity="0.94">I</tspan><tspan x="621" y="57" fill="#00FF41" opacity="0.88">N</tspan><tspan x="621" y="76" fill="#00FF41" opacity="0.81">3</tspan><tspan x="621" y="95" fill="#00FF41" opacity="0.75">B</tspan><tspan x="621" y="114" fill="#00FF41" opacity="0.69">J</tspan><tspan x="621" y="133" fill="#00FF41" opacity="0.62">Y</tspan><tspan x="621" y="152" fill="#00FF41" opacity="0.56">X</tspan><tspan x="621" y="171" fill="#00FF41" opacity="0.5">H</tspan><tspan x="621" y="190" fill="#00FF41" opacity="0.44">F</tspan><tspan x="621" y="209" fill="#00FF41" opacity="0.38">8</tspan><tspan x="621" y="228" fill="#00FF41" opacity="0.31">F</tspan><tspan x="621" y="247" fill="#00FF41" opacity="0.25">Q</tspan><tspan x="621" y="266" fill="#00FF41" opacity="0.19">A</tspan><tspan x="621" y="285" fill="#00FF41" opacity="0.12">A</tspan><tspan x="621" y="304" fill="#00FF41" opacity="0.12">V</tspan></text>
</g>
<g transform="translate(0 -66)">
<animateTransform attributeName="transform" type="translate" from="0 -66" to="0 434" dur="4.11s" begin="0.28s" repeatCount="indefinite"/>
<text font-family="Courier New, monospace" font-size="19" text-anchor="middle" filter="url(#glow)"><tspan x="675" y="19" fill="#CCFFCC" font-weight="700">O</tspan><tspan x="675" y="38" fill="#00FF41" opacity="0.94">L</tspan><tspan x="675" y="57" fill="#00FF41" opacity="0.88">L</tspan><tspan x="675" y="76" fill="#00FF41" opacity="0.81">A</tspan><tspan x="675" y="95" fill="#00FF41" opacity="0.75">M</tspan><tspan x="675" y="114" fill="#00FF41" opacity="0.69">A</tspan><tspan x="675" y="133" fill="#00FF41" opacity="0.62">C</tspan><tspan x="675" y="152" fill="#00FF41" opacity="0.56">C</tspan><tspan x="675" y="171" fill="#00FF41" opacity="0.5">T</tspan><tspan x="675" y="190" fill="#00FF41" opacity="0.44">N</tspan><tspan x="675" y="209" fill="#00FF41" opacity="0.38">P</tspan><tspan x="675" y="228" fill="#00FF41" opacity="0.31">D</tspan><tspan x="675" y="247" fill="#00FF41" opacity="0.25">G</tspan><tspan x="675" y="266" fill="#00FF41" opacity="0.19">O</tspan><tspan x="675" y="285" fill="#00FF41" opacity="0.12">Z</tspan><tspan x="675" y="304" fill="#00FF41" opacity="0.12">R</tspan></text>
</g>
<g transform="translate(0 -122)">
<animateTransform attributeName="transform" type="translate" from="0 -122" to="0 378" dur="3.94s" begin="0.85s" repeatCount="indefinite"/>
<text font-family="Courier New, monospace" font-size="19" text-anchor="middle" filter="url(#glow)"><tspan x="729" y="19" fill="#CCFFCC" font-weight="700">U</tspan><tspan x="729" y="38" fill="#00FF41" opacity="0.94">E</tspan><tspan x="729" y="57" fill="#00FF41" opacity="0.88">U</tspan><tspan x="729" y="76" fill="#00FF41" opacity="0.81">H</tspan><tspan x="729" y="95" fill="#00FF41" opacity="0.75">K</tspan><tspan x="729" y="114" fill="#00FF41" opacity="0.69">T</tspan><tspan x="729" y="133" fill="#00FF41" opacity="0.62">S</tspan><tspan x="729" y="152" fill="#00FF41" opacity="0.56">J</tspan><tspan x="729" y="171" fill="#00FF41" opacity="0.5">M</tspan><tspan x="729" y="190" fill="#00FF41" opacity="0.44">O</tspan><tspan x="729" y="209" fill="#00FF41" opacity="0.38">M</tspan><tspan x="729" y="228" fill="#00FF41" opacity="0.31">B</tspan><tspan x="729" y="247" fill="#00FF41" opacity="0.25">F</tspan><tspan x="729" y="266" fill="#00FF41" opacity="0.19">F</tspan><tspan x="729" y="285" fill="#00FF41" opacity="0.12">A</tspan><tspan x="729" y="304" fill="#00FF41" opacity="0.12">I</tspan></text>
</g>
<g transform="translate(0 -110)">
<animateTransform attributeName="transform" type="translate" from="0 -110" to="0 390" dur="2.86s" begin="2.22s" repeatCount="indefinite"/>
<text font-family="Courier New, monospace" font-size="19" text-anchor="middle" filter="url(#glow)"><tspan x="783" y="19" fill="#CCFFCC" font-weight="700">K</tspan><tspan x="783" y="38" fill="#00FF41" opacity="0.94">8</tspan><tspan x="783" y="57" fill="#00FF41" opacity="0.88">S</tspan><tspan x="783" y="76" fill="#00FF41" opacity="0.81">A</tspan><tspan x="783" y="95" fill="#00FF41" opacity="0.75">U</tspan><tspan x="783" y="114" fill="#00FF41" opacity="0.69">S</tspan><tspan x="783" y="133" fill="#00FF41" opacity="0.62">8</tspan><tspan x="783" y="152" fill="#00FF41" opacity="0.56">F</tspan><tspan x="783" y="171" fill="#00FF41" opacity="0.5">A</tspan><tspan x="783" y="190" fill="#00FF41" opacity="0.44">8</tspan><tspan x="783" y="209" fill="#00FF41" opacity="0.38">Z</tspan><tspan x="783" y="228" fill="#00FF41" opacity="0.31">I</tspan><tspan x="783" y="247" fill="#00FF41" opacity="0.25">A</tspan><tspan x="783" y="266" fill="#00FF41" opacity="0.19">O</tspan><tspan x="783" y="285" fill="#00FF41" opacity="0.12">F</tspan><tspan x="783" y="304" fill="#00FF41" opacity="0.12">G</tspan></text>
</g>
<g transform="translate(0 -227)">
<animateTransform attributeName="transform" type="translate" from="0 -227" to="0 273" dur="4.61s" begin="0.86s" repeatCount="indefinite"/>
<text font-family="Courier New, monospace" font-size="19" text-anchor="middle" filter="url(#glow)"><tspan x="837" y="19" fill="#CCFFCC" font-weight="700">Q</tspan><tspan x="837" y="38" fill="#00FF41" opacity="0.94">Q</tspan><tspan x="837" y="57" fill="#00FF41" opacity="0.88">N</tspan><tspan x="837" y="76" fill="#00FF41" opacity="0.81">F</tspan><tspan x="837" y="95" fill="#00FF41" opacity="0.75">X</tspan><tspan x="837" y="114" fill="#00FF41" opacity="0.69">N</tspan><tspan x="837" y="133" fill="#00FF41" opacity="0.62">X</tspan><tspan x="837" y="152" fill="#00FF41" opacity="0.56">L</tspan><tspan x="837" y="171" fill="#00FF41" opacity="0.5">E</tspan><tspan x="837" y="190" fill="#00FF41" opacity="0.44">B</tspan><tspan x="837" y="209" fill="#00FF41" opacity="0.38">B</tspan><tspan x="837" y="228" fill="#00FF41" opacity="0.31">T</tspan><tspan x="837" y="247" fill="#00FF41" opacity="0.25">L</tspan><tspan x="837" y="266" fill="#00FF41" opacity="0.19">J</tspan><tspan x="837" y="285" fill="#00FF41" opacity="0.12">L</tspan><tspan x="837" y="304" fill="#00FF41" opacity="0.12">L</tspan></text>
</g>
<g transform="translate(0 -88)">
<animateTransform attributeName="transform" type="translate" from="0 -88" to="0 412" dur="4.06s" begin="2.92s" repeatCount="indefinite"/>
<text font-family="Courier New, monospace" font-size="19" text-anchor="middle" filter="url(#glow)"><tspan x="891" y="19" fill="#CCFFCC" font-weight="700">S</tspan><tspan x="891" y="38" fill="#00FF41" opacity="0.94">B</tspan><tspan x="891" y="57" fill="#00FF41" opacity="0.88">8</tspan><tspan x="891" y="76" fill="#00FF41" opacity="0.81">K</tspan><tspan x="891" y="95" fill="#00FF41" opacity="0.75">V</tspan><tspan x="891" y="114" fill="#00FF41" opacity="0.69">I</tspan><tspan x="891" y="133" fill="#00FF41" opacity="0.62">X</tspan><tspan x="891" y="152" fill="#00FF41" opacity="0.56">Z</tspan><tspan x="891" y="171" fill="#00FF41" opacity="0.5">B</tspan><tspan x="891" y="190" fill="#00FF41" opacity="0.44">F</tspan><tspan x="891" y="209" fill="#00FF41" opacity="0.38">E</tspan><tspan x="891" y="228" fill="#00FF41" opacity="0.31">E</tspan><tspan x="891" y="247" fill="#00FF41" opacity="0.25">P</tspan><tspan x="891" y="266" fill="#00FF41" opacity="0.19">M</tspan><tspan x="891" y="285" fill="#00FF41" opacity="0.12">C</tspan><tspan x="891" y="304" fill="#00FF41" opacity="0.12">L</tspan></text>
</g>
<g transform="translate(0 -37)">
<animateTransform attributeName="transform" type="translate" from="0 -37" to="0 463" dur="3.3s" begin="1.85s" repeatCount="indefinite"/>
<text font-family="Courier New, monospace" font-size="19" text-anchor="middle" filter="url(#glow)"><tspan x="945" y="19" fill="#CCFFCC" font-weight="700">M</tspan><tspan x="945" y="38" fill="#00FF41" opacity="0.94">X</tspan><tspan x="945" y="57" fill="#00FF41" opacity="0.88">Z</tspan><tspan x="945" y="76" fill="#00FF41" opacity="0.81">Z</tspan><tspan x="945" y="95" fill="#00FF41" opacity="0.75">P</tspan><tspan x="945" y="114" fill="#00FF41" opacity="0.69">B</tspan><tspan x="945" y="133" fill="#00FF41" opacity="0.62">8</tspan><tspan x="945" y="152" fill="#00FF41" opacity="0.56">S</tspan><tspan x="945" y="171" fill="#00FF41" opacity="0.5">P</tspan><tspan x="945" y="190" fill="#00FF41" opacity="0.44">Y</tspan><tspan x="945" y="209" fill="#00FF41" opacity="0.38">3</tspan><tspan x="945" y="228" fill="#00FF41" opacity="0.31">A</tspan><tspan x="945" y="247" fill="#00FF41" opacity="0.25">W</tspan><tspan x="945" y="266" fill="#00FF41" opacity="0.19">Z</tspan><tspan x="945" y="285" fill="#00FF41" opacity="0.12">F</tspan><tspan x="945" y="304" fill="#00FF41" opacity="0.12">D</tspan></text>
</g>
<g transform="translate(0 -39)">
<animateTransform attributeName="transform" type="translate" from="0 -39" to="0 461" dur="3.9s" begin="1.93s" repeatCount="indefinite"/>
<text font-family="Courier New, monospace" font-size="19" text-anchor="middle" filter="url(#glow)"><tspan x="999" y="19" fill="#CCFFCC" font-weight="700">T</tspan><tspan x="999" y="38" fill="#00FF41" opacity="0.94">E</tspan><tspan x="999" y="57" fill="#00FF41" opacity="0.88">R</tspan><tspan x="999" y="76" fill="#00FF41" opacity="0.81">R</tspan><tspan x="999" y="95" fill="#00FF41" opacity="0.75">A</tspan><tspan x="999" y="114" fill="#00FF41" opacity="0.69">F</tspan><tspan x="999" y="133" fill="#00FF41" opacity="0.62">O</tspan><tspan x="999" y="152" fill="#00FF41" opacity="0.56">R</tspan><tspan x="999" y="171" fill="#00FF41" opacity="0.5">M</tspan><tspan x="999" y="190" fill="#00FF41" opacity="0.44">8</tspan><tspan x="999" y="209" fill="#00FF41" opacity="0.38">D</tspan><tspan x="999" y="228" fill="#00FF41" opacity="0.31">K</tspan><tspan x="999" y="247" fill="#00FF41" opacity="0.25">3</tspan><tspan x="999" y="266" fill="#00FF41" opacity="0.19">K</tspan><tspan x="999" y="285" fill="#00FF41" opacity="0.12">G</tspan><tspan x="999" y="304" fill="#00FF41" opacity="0.12">X</tspan></text>
</g>
<g transform="translate(0 -82)">
<animateTransform attributeName="transform" type="translate" from="0 -82" to="0 418" dur="4.92s" begin="1.14s" repeatCount="indefinite"/>
<text font-family="Courier New, monospace" font-size="19" text-anchor="middle" filter="url(#glow)"><tspan x="1053" y="19" fill="#CCFFCC" font-weight="700">X</tspan><tspan x="1053" y="38" fill="#00FF41" opacity="0.94">P</tspan><tspan x="1053" y="57" fill="#00FF41" opacity="0.88">T</tspan><tspan x="1053" y="76" fill="#00FF41" opacity="0.81">U</tspan><tspan x="1053" y="95" fill="#00FF41" opacity="0.75">N</tspan><tspan x="1053" y="114" fill="#00FF41" opacity="0.69">C</tspan><tspan x="1053" y="133" fill="#00FF41" opacity="0.62">E</tspan><tspan x="1053" y="152" fill="#00FF41" opacity="0.56">H</tspan><tspan x="1053" y="171" fill="#00FF41" opacity="0.5">E</tspan><tspan x="1053" y="190" fill="#00FF41" opacity="0.44">8</tspan><tspan x="1053" y="209" fill="#00FF41" opacity="0.38">Q</tspan><tspan x="1053" y="228" fill="#00FF41" opacity="0.31">V</tspan><tspan x="1053" y="247" fill="#00FF41" opacity="0.25">P</tspan><tspan x="1053" y="266" fill="#00FF41" opacity="0.19">8</tspan><tspan x="1053" y="285" fill="#00FF41" opacity="0.12">V</tspan><tspan x="1053" y="304" fill="#00FF41" opacity="0.12">I</tspan></text>
</g>
<g transform="translate(0 -132)">
<animateTransform attributeName="transform" type="translate" from="0 -132" to="0 368" dur="2.95s" begin="2.34s" repeatCount="indefinite"/>
<text font-family="Courier New, monospace" font-size="19" text-anchor="middle" filter="url(#glow)"><tspan x="1107" y="19" fill="#CCFFCC" font-weight="700">O</tspan><tspan x="1107" y="38" fill="#00FF41" opacity="0.94">D</tspan><tspan x="1107" y="57" fill="#00FF41" opacity="0.88">8</tspan><tspan x="1107" y="76" fill="#00FF41" opacity="0.81">O</tspan><tspan x="1107" y="95" fill="#00FF41" opacity="0.75">A</tspan><tspan x="1107" y="114" fill="#00FF41" opacity="0.69">Z</tspan><tspan x="1107" y="133" fill="#00FF41" opacity="0.62">D</tspan><tspan x="1107" y="152" fill="#00FF41" opacity="0.56">A</tspan><tspan x="1107" y="171" fill="#00FF41" opacity="0.5">R</tspan><tspan x="1107" y="190" fill="#00FF41" opacity="0.44">A</tspan><tspan x="1107" y="209" fill="#00FF41" opacity="0.38">T</tspan><tspan x="1107" y="228" fill="#00FF41" opacity="0.31">Z</tspan><tspan x="1107" y="247" fill="#00FF41" opacity="0.25">F</tspan><tspan x="1107" y="266" fill="#00FF41" opacity="0.19">K</tspan><tspan x="1107" y="285" fill="#00FF41" opacity="0.12">B</tspan><tspan x="1107" y="304" fill="#00FF41" opacity="0.12">Q</tspan></text>
</g>
<g transform="translate(0 -102)">
<animateTransform attributeName="transform" type="translate" from="0 -102" to="0 398" dur="3.46s" begin="2.38s" repeatCount="indefinite"/>
<text font-family="Courier New, monospace" font-size="19" text-anchor="middle" filter="url(#glow)"><tspan x="1161" y="19" fill="#CCFFCC" font-weight="700">A</tspan><tspan x="1161" y="38" fill="#00FF41" opacity="0.94">N</tspan><tspan x="1161" y="57" fill="#00FF41" opacity="0.88">S</tspan><tspan x="1161" y="76" fill="#00FF41" opacity="0.81">I</tspan><tspan x="1161" y="95" fill="#00FF41" opacity="0.75">B</tspan><tspan x="1161" y="114" fill="#00FF41" opacity="0.69">L</tspan><tspan x="1161" y="133" fill="#00FF41" opacity="0.62">E</tspan><tspan x="1161" y="152" fill="#00FF41" opacity="0.56">T</tspan><tspan x="1161" y="171" fill="#00FF41" opacity="0.5">Q</tspan><tspan x="1161" y="190" fill="#00FF41" opacity="0.44">Q</tspan><tspan x="1161" y="209" fill="#00FF41" opacity="0.38">O</tspan><tspan x="1161" y="228" fill="#00FF41" opacity="0.31">I</tspan><tspan x="1161" y="247" fill="#00FF41" opacity="0.25">G</tspan><tspan x="1161" y="266" fill="#00FF41" opacity="0.19">E</tspan><tspan x="1161" y="285" fill="#00FF41" opacity="0.12">T</tspan><tspan x="1161" y="304" fill="#00FF41" opacity="0.12">U</tspan></text>
</g>
<rect width="1200" height="200" fill="url(#fade)"/>
</svg>